<svg xmlns="http://www.w3.org/2000/svg" xmlns:xlink="http://www.w3.org/1999/xlink" width="1000" zoomAndPan="magnify" viewBox="0 0 750 749.999995" height="1000" preserveAspectRatio="xMidYMid meet" version="1.2"><defs><clipPath id="ca6e69e8b9"><path d="M 95.078125 95.078125 L 654.578125 95.078125 L 654.578125 654.578125 L 95.078125 654.578125 Z M 95.078125 95.078125 "/></clipPath></defs><g id="072c1394e3"><g clip-rule="nonzero" clip-path="url(#ca6e69e8b9)"><path style=" stroke:none;fill-rule:nonzero;fill:#45a834;fill-opacity:1;" d="M 654.578125 374.828125 C 654.578125 379.40625 654.464844 383.980469 654.242188 388.554688 C 654.015625 393.128906 653.679688 397.691406 653.230469 402.25 C 652.78125 406.804688 652.222656 411.347656 651.550781 415.875 C 650.878906 420.40625 650.097656 424.914062 649.203125 429.40625 C 648.308594 433.894531 647.308594 438.359375 646.195312 442.800781 C 645.082031 447.242188 643.863281 451.65625 642.53125 456.035156 C 641.203125 460.417969 639.769531 464.761719 638.226562 469.074219 C 636.683594 473.382812 635.035156 477.652344 633.285156 481.882812 C 631.53125 486.113281 629.675781 490.296875 627.71875 494.4375 C 625.761719 498.574219 623.703125 502.664062 621.546875 506.703125 C 619.386719 510.738281 617.132812 514.722656 614.777344 518.648438 C 612.425781 522.574219 609.976562 526.441406 607.433594 530.25 C 604.886719 534.054688 602.253906 537.796875 599.527344 541.476562 C 596.796875 545.152344 593.984375 548.761719 591.078125 552.300781 C 588.171875 555.839844 585.183594 559.304688 582.109375 562.695312 C 579.035156 566.089844 575.878906 569.402344 572.640625 572.640625 C 569.402344 575.878906 566.089844 579.035156 562.695312 582.109375 C 559.304688 585.183594 555.839844 588.171875 552.300781 591.078125 C 548.761719 593.980469 545.152344 596.796875 541.476562 599.527344 C 537.796875 602.253906 534.054688 604.886719 530.25 607.433594 C 526.441406 609.976562 522.574219 612.425781 518.648438 614.777344 C 514.722656 617.132812 510.738281 619.386719 506.703125 621.546875 C 502.664062 623.703125 498.574219 625.761719 494.4375 627.71875 C 490.296875 629.675781 486.113281 631.53125 481.882812 633.285156 C 477.652344 635.035156 473.382812 636.683594 469.074219 638.226562 C 464.761719 639.769531 460.417969 641.203125 456.035156 642.53125 C 451.65625 643.863281 447.242188 645.082031 442.800781 646.195312 C 438.359375 647.308594 433.894531 648.308594 429.40625 649.203125 C 424.914062 650.097656 420.40625 650.878906 415.875 651.550781 C 411.347656 652.222656 406.804688 652.78125 402.25 653.230469 C 397.691406 653.679688 393.128906 654.015625 388.554688 654.242188 C 383.980469 654.464844 379.40625 654.578125 374.828125 654.578125 C 370.25 654.578125 365.675781 654.464844 361.101562 654.242188 C 356.527344 654.015625 351.964844 653.679688 347.40625 653.230469 C 342.851562 652.78125 338.308594 652.222656 333.78125 651.550781 C 329.25 650.878906 324.742188 650.097656 320.25 649.203125 C 315.761719 648.308594 311.296875 647.308594 306.855469 646.195312 C 302.414062 645.082031 298.003906 643.863281 293.621094 642.53125 C 289.238281 641.203125 284.894531 639.769531 280.582031 638.226562 C 276.273438 636.683594 272.003906 635.035156 267.773438 633.285156 C 263.542969 631.53125 259.359375 629.675781 255.21875 627.71875 C 251.082031 625.761719 246.992188 623.703125 242.957031 621.546875 C 238.917969 619.386719 234.933594 617.132812 231.007812 614.777344 C 227.082031 612.425781 223.214844 609.976562 219.40625 607.433594 C 215.601562 604.886719 211.859375 602.253906 208.179688 599.527344 C 204.503906 596.796875 200.894531 593.980469 197.355469 591.078125 C 193.816406 588.171875 190.351562 585.183594 186.960938 582.109375 C 183.566406 579.035156 180.253906 575.878906 177.015625 572.640625 C 173.777344 569.402344 170.621094 566.089844 167.546875 562.695312 C 164.472656 559.304688 161.484375 555.839844 158.578125 552.300781 C 155.675781 548.761719 152.859375 545.152344 150.132812 541.476562 C 147.402344 537.796875 144.769531 534.054688 142.226562 530.25 C 139.679688 526.441406 137.234375 522.574219 134.878906 518.648438 C 132.523438 514.722656 130.269531 510.738281 128.109375 506.703125 C 125.953125 502.664062 123.894531 498.574219 121.9375 494.4375 C 119.980469 490.296875 118.125 486.113281 116.375 481.882812 C 114.621094 477.652344 112.972656 473.382812 111.429688 469.074219 C 109.890625 464.761719 108.453125 460.417969 107.125 456.035156 C 105.796875 451.65625 104.574219 447.242188 103.460938 442.800781 C 102.351562 438.359375 101.347656 433.894531 100.453125 429.40625 C 99.558594 424.914062 98.777344 420.40625 98.105469 415.875 C 97.433594 411.347656 96.875 406.804688 96.425781 402.25 C 95.976562 397.691406 95.640625 393.128906 95.414062 388.554688 C 95.191406 383.980469 95.078125 379.40625 95.078125 374.828125 C 95.078125 370.25 95.191406 365.675781 95.414062 361.101562 C 95.640625 356.527344 95.976562 351.964844 96.425781 347.40625 C 96.875 342.851562 97.433594 338.308594 98.105469 333.78125 C 98.777344 329.25 99.558594 324.742188 100.453125 320.25 C 101.347656 315.761719 102.351562 311.296875 103.460938 306.855469 C 104.574219 302.414062 105.796875 298.003906 107.125 293.621094 C 108.453125 289.238281 109.890625 284.894531 111.429688 280.582031 C 112.972656 276.273438 114.621094 272.003906 116.375 267.773438 C 118.125 263.542969 119.980469 259.359375 121.9375 255.21875 C 123.894531 251.082031 125.953125 246.992188 128.109375 242.957031 C 130.269531 238.917969 132.523438 234.933594 134.878906 231.007812 C 137.234375 227.082031 139.679688 223.214844 142.226562 219.40625 C 144.769531 215.601562 147.402344 211.859375 150.132812 208.179688 C 152.859375 204.503906 155.675781 200.894531 158.578125 197.355469 C 161.484375 193.816406 164.472656 190.351562 167.546875 186.960938 C 170.621094 183.566406 173.777344 180.253906 177.015625 177.015625 C 180.253906 173.777344 183.566406 170.621094 186.960938 167.546875 C 190.351562 164.472656 193.816406 161.484375 197.355469 158.578125 C 200.894531 155.675781 204.503906 152.859375 208.179688 150.132812 C 211.859375 147.402344 215.601562 144.769531 219.40625 142.226562 C 223.214844 139.679688 227.082031 137.234375 231.007812 134.878906 C 234.933594 132.523438 238.917969 130.269531 242.957031 128.109375 C 246.992188 125.953125 251.082031 123.894531 255.21875 121.9375 C 259.359375 119.980469 263.542969 118.125 267.773438 116.375 C 272.003906 114.621094 276.273438 112.972656 280.582031 111.429688 C 284.894531 109.890625 289.238281 108.453125 293.621094 107.125 C 298.003906 105.796875 302.414062 104.574219 306.855469 103.460938 C 311.296875 102.351562 315.761719 101.347656 320.25 100.453125 C 324.742188 99.5625 329.25 98.777344 333.78125 98.105469 C 338.308594 97.433594 342.851562 96.875 347.40625 96.425781 C 351.964844 95.976562 356.527344 95.640625 361.101562 95.414062 C 365.675781 95.191406 370.25 95.078125 374.828125 95.078125 C 379.40625 95.078125 383.980469 95.191406 388.554688 95.414062 C 393.128906 95.640625 397.691406 95.976562 402.25 96.425781 C 406.804688 96.875 411.347656 97.433594 415.875 98.105469 C 420.40625 98.777344 424.914062 99.5625 429.40625 100.453125 C 433.894531 101.347656 438.359375 102.351562 442.800781 103.460938 C 447.242188 104.574219 451.65625 105.796875 456.035156 107.125 C 460.417969 108.453125 464.761719 109.890625 469.074219 111.429688 C 473.382812 112.972656 477.652344 114.621094 481.882812 116.375 C 486.113281 118.125 490.296875 119.980469 494.4375 121.9375 C 498.574219 123.894531 502.664062 125.953125 506.703125 128.109375 C 510.738281 130.269531 514.722656 132.523438 518.648438 134.878906 C 522.574219 137.234375 526.441406 139.679688 530.25 142.226562 C 534.054688 144.769531 537.796875 147.402344 541.476562 150.132812 C 545.152344 152.859375 548.761719 155.675781 552.300781 158.578125 C 555.839844 161.484375 559.304688 164.472656 562.695312 167.546875 C 566.089844 170.621094 569.402344 173.777344 572.640625 177.015625 C 575.878906 180.253906 579.035156 183.566406 582.109375 186.960938 C 585.183594 190.351562 588.171875 193.816406 591.078125 197.355469 C 593.984375 200.894531 596.796875 204.503906 599.527344 208.179688 C 602.253906 211.859375 604.886719 215.601562 607.433594 219.40625 C 609.976562 223.214844 612.425781 227.082031 614.777344 231.007812 C 617.132812 234.933594 619.386719 238.917969 621.546875 242.957031 C 623.703125 246.992188 625.761719 251.082031 627.71875 255.21875 C 629.675781 259.359375 631.53125 263.542969 633.285156 267.773438 C 635.035156 272.003906 636.683594 276.273438 638.226562 280.582031 C 639.769531 284.894531 641.203125 289.238281 642.53125 293.621094 C 643.863281 298.003906 645.082031 302.414062 646.195312 306.855469 C 647.308594 311.296875 648.308594 315.761719 649.203125 320.25 C 650.097656 324.742188 650.878906 329.25 651.550781 333.78125 C 652.222656 338.308594 652.78125 342.851562 653.230469 347.40625 C 653.679688 351.964844 654.015625 356.527344 654.242188 361.101562 C 654.464844 365.675781 654.578125 370.25 654.578125 374.828125 Z M 654.578125 374.828125 "/></g><path style=" stroke:none;fill-rule:nonzero;fill:#f2f2f2;fill-opacity:1;" d="M 528.425781 321.980469 C 543.394531 307.003906 543.390625 282.722656 528.414062 267.75 C 513.433594 252.777344 489.152344 252.78125 474.179688 267.765625 L 341.457031 400.542969 L 275.203125 334.289062 C 260.230469 319.316406 235.945312 319.316406 220.972656 334.289062 C 205.996094 349.265625 205.996094 373.546875 220.972656 388.523438 L 314.347656 481.902344 C 321.542969 489.09375 331.300781 493.132812 341.46875 493.132812 C 351.644531 493.132812 361.398438 489.085938 368.589844 481.894531 Z M 528.425781 321.980469 "/></g></svg>